<svg width="744" height="445" viewBox="0 0 744 445" fill="none" xmlns="http://www.w3.org/2000/svg">
<mask id="mask0_4694_775" style="mask-type:alpha" maskUnits="userSpaceOnUse" x="0" y="0" width="744" height="445">
<rect x="0.5" width="743.5" height="444.612" fill="#D9D9D9"/>
</mask>
<g mask="url(#mask0_4694_775)">
<mask id="mask1_4694_775" style="mask-type:alpha" maskUnits="userSpaceOnUse" x="-221" y="-387" width="1216" height="1163">
<rect width="985" height="712" transform="matrix(-0.798076 0.602556 0.602556 0.798076 565.363 -386.654)" fill="#D9D9D9"/>
</mask>
<g mask="url(#mask1_4694_775)">
<path d="M-1360.2 -1054.49C-1348.68 -1054.86 -1322.29 -1052.73 -1320.7 -1021.17C-1306.46 -777.575 -1279.57 -541.026 -1241.28 -317.836C-1224.12 -219.547 -1201.5 -121.873 -1179.99 -26.6757C-1156.13 77.3117 -1130.67 185.385 -1114.25 292.708C-1095.48 408.82 -1095.42 522.566 -1114.18 630.107C-1129.84 723.664 -1160.48 810.896 -1192.86 903.945L-1200.18 924.856C-1205.77 939.951 -1200.82 956.045 -1188.07 966.577C-1175.31 977.108 -1158.09 979.226 -1143.84 971.688C-1074.45 935.977 -1007.02 880.09 -952.119 835.083C-760.633 677.066 -608.895 482.626 -501.74 257.825C-490.082 233.823 -468.031 234.461 -459.112 235.953C-443.504 238.566 -423.936 249.474 -420.231 272.993C-389.118 475.137 -353.057 693.375 -303.494 913.11C-290.888 970.178 -282.977 1005.09 -264.054 1065.5C-261.086 1075.16 -253.912 1096.21 -245.994 1117.38C-245.499 1118.99 -245.004 1120.6 -243.891 1123.07C-231.397 1157.99 -209.35 1167.78 -191.263 1169.29C-188.29 1169.78 -184.45 1169.66 -182.096 1169.29C-168.715 1166.95 -159.667 1158.54 -154.708 1151.74C-149.625 1144.19 -144.417 1135.91 -137.969 1124.77C-91.0944 1036.44 -57.4712 940.546 -25.2127 848.24L-19.6299 833.145C-9.45644 804.315 0.717294 775.485 10.1477 746.531C64.7397 589.264 120.945 426.924 206.997 282.557C250.395 210.435 304.451 129.411 382.65 77.6166C456.636 28.1706 547.948 12.1573 639.489 31.295C734.623 51.7972 820.326 101.254 891.413 146.737C970.054 197.302 1049.68 255.665 1134.88 326.41C1271.71 440.146 1401.11 566.377 1526.54 688.892C1543.63 705.492 1559.97 721.967 1577.18 737.824C1870.89 1023.61 2236.17 1379.39 2711.85 1459C2715.56 1459.62 2720.02 1460.37 2723.74 1460.99C2761.89 1465.85 2758.53 1499.64 2757.54 1505.58C2756.79 1510.03 2750.58 1547.16 2711.06 1541.31C2285.18 1474.61 1941.42 1195.71 1661.7 931.349C1600.9 874.611 1540.6 814.902 1482.15 757.795C1394.86 672.196 1304.09 584.49 1211.97 500.372C1121.7 418.855 1039.84 350.96 960.96 292.721C882.819 234.607 798.731 175.498 704.475 136.06C673.758 123.285 643.906 114.473 615.663 109.746C548.027 98.4255 486.574 109.513 435.887 143.012C354.218 197.279 303.875 283.505 262.086 359.712C187.806 497.654 136.316 645.516 87.0586 789.172C69.316 840.399 51.2008 893.852 31.8478 945.572C26.3893 959.925 21.5498 975.145 15.967 990.24C-11.3277 1066.58 -41.9732 1153.82 -92.9204 1211.7C-109.779 1230.25 -154.4 1273.16 -214.603 1263.08C-302.306 1248.41 -332.72 1128.82 -354.85 1041.91L-358.929 1025.2C-397.38 876.023 -430.25 716.331 -464.705 506.759L-480.884 411.689L-533.454 492.962C-619.747 625.077 -724.123 746.532 -843.604 853.245C-914.5 916.185 -999.027 987.529 -1094.82 1039.43C-1237.7 1117.04 -1275.21 1067.25 -1286.97 1050.78C-1320.02 1006.32 -1293.23 937.526 -1270.03 876.526C-1265.94 865.762 -1261.84 854.997 -1258 845.718C-1208.25 708.25 -1183.91 594.773 -1181.37 488.333C-1177.59 365.308 -1202.68 245.848 -1231.11 123.539L-1242.23 75.8777C-1263.12 -13.8735 -1284.38 -105.977 -1301.93 -197.458C-1352.22 -453.953 -1385.89 -727.514 -1401.97 -1010.34C-1403.94 -1044.26 -1374.7 -1054.63 -1356.98 -1055.48" fill="#C1A0DA"/>
</g>
</g>
</svg>
