<svg width="212" height="37" viewBox="0 0 212 37" fill="none" xmlns="http://www.w3.org/2000/svg">
<g clip-path="url(#clip0_3928_143)">
<path d="M0 14.1921H4.48562V13.9718C4.48562 3.79306 8.70994 0.488281 16.4618 0.488281C24.2136 0.488281 20.9039 0.7086 23.4733 1.14924V5.15903C21.0345 4.67433 18.9006 4.40995 17.0279 4.40995C11.9762 4.40995 9.05834 6.56907 9.05834 13.3989V14.2361H19.728V17.9375H9.05834V35.7833H4.48562V17.9375H0.0435497V14.2361L0 14.1921Z" fill="#F3F4EB"/>
<path d="M31.7036 1.2373H27.1309V35.7391H31.7036V1.2373Z" fill="#F3F4EB"/>
<path d="M45.8571 36.0032C39.8037 34.4169 36.3633 29.2614 36.3633 22.5638C36.3633 15.8661 41.3715 8.63965 49.8201 8.63965C58.2688 8.63965 63.2334 14.3679 63.2334 22.5638C63.2334 30.7596 63.1899 24.106 63.1028 24.8991L57.4849 28.5124C57.3542 28.6005 57.2236 28.4683 57.2671 28.3361C58.051 26.6617 58.3994 24.7669 58.3994 22.5638C58.3994 16.3508 55.3945 12.1647 49.733 12.1647C44.0716 12.1647 41.2408 16.2186 41.2408 22.5638C41.2408 28.9089 44.7684 33.095 50.0814 32.9628C50.2556 32.9628 50.2992 33.139 50.1685 33.2272L45.8571 36.0032Z" fill="#F3F4EB"/>
<path d="M65.9336 9.34473H70.8983L75.079 29.9225H75.1226L81.4373 9.34473H85.9665L92.3247 29.9225H92.3683L96.549 9.34473H101.514L95.8087 35.7389H90.2343L83.789 14.8527H83.6583L77.2565 35.7389H71.6386L65.9336 9.34473Z" fill="#F3F4EB"/>
<path d="M112.621 36.488C107.874 36.488 103.867 32.6985 103.867 25.0314C103.867 17.3643 106.916 11.8123 114.58 9.69727L118.587 12.253C118.718 12.3411 118.674 12.5173 118.543 12.5173C111.575 13.1342 108.745 19.4353 108.788 24.8111C108.788 29.0412 110.53 32.6985 113.666 32.6985C116.801 32.6985 119.981 29.7903 122.681 24.8111V15.2933C122.681 15.1171 122.811 15.073 122.942 15.1612L127.297 17.9372V27.9396C127.297 31.2003 127.602 33.8001 128.299 35.6948H123.726C123.421 34.461 123.16 32.7866 122.986 30.7597C120.068 34.417 116.192 36.4439 112.751 36.4439L112.621 36.488Z" fill="#F3F4EB"/>
<path d="M142.799 23.9305H141.014V23.2695H145.586V23.9305H143.801V29.5266H142.799V23.9305Z" fill="#F3F4EB"/>
<path d="M146.85 23.2695H150.682V23.9305H147.851V25.9574H150.682V26.6184H147.851V28.8656H150.682V29.5266H146.85V23.3136V23.2695Z" fill="#F3F4EB"/>
<path d="M152.207 28.1607V24.6356C152.207 23.6222 152.86 23.2256 154.689 23.2256C156.518 23.2256 157.172 23.6222 157.172 24.6356V25.561H156.17V23.9306H153.209V28.8657H156.17V27.2354H157.172V28.1607C157.172 29.1742 156.518 29.5708 154.689 29.5708C152.86 29.5708 152.207 29.1742 152.207 28.1607Z" fill="#F3F4EB"/>
<path d="M158.914 23.2695H159.916V25.9574H162.746V23.2695H163.748V29.4825H162.746V26.5743H159.916V29.4825H158.914V23.2695Z" fill="#F3F4EB"/>
<path d="M165.533 23.2695H167.319L169.104 27.4996C169.278 27.9403 169.496 28.425 169.67 28.8656H169.888V23.2695H170.803V29.4825H169.017L167.232 25.2524C167.057 24.8118 166.84 24.3271 166.665 23.8864H166.448V29.4825H165.533V23.2695Z" fill="#F3F4EB"/>
<path d="M172.588 28.1607V24.6356C172.588 23.6222 173.241 23.2256 175.114 23.2256C176.986 23.2256 177.64 23.6222 177.64 24.6356V28.1607C177.64 29.1742 176.986 29.5708 175.114 29.5708C173.241 29.5708 172.588 29.1742 172.588 28.1607ZM176.638 28.8657V23.9306H173.59V28.8657H176.638Z" fill="#F3F4EB"/>
<path d="M179.383 23.2695H180.384V28.8656H183.128V29.5266H179.383V23.3136V23.2695Z" fill="#F3F4EB"/>
<path d="M184.26 28.1607V24.6356C184.26 23.6222 184.913 23.2256 186.786 23.2256C188.658 23.2256 189.311 23.6222 189.311 24.6356V28.1607C189.311 29.1742 188.658 29.5708 186.786 29.5708C184.913 29.5708 184.26 29.1742 184.26 28.1607ZM188.31 28.8657V23.9306H185.261V28.8657H188.31Z" fill="#F3F4EB"/>
<path d="M191.098 28.1607V24.6356C191.098 23.6222 191.751 23.2256 193.58 23.2256C195.409 23.2256 196.062 23.6222 196.062 24.6356V25.2966H195.061V23.9306H192.099V28.8657H195.061V27.0591H193.58V26.3982H196.062V29.5267H195.496L195.278 29.0861C194.843 29.4386 194.19 29.6148 193.449 29.6148C191.882 29.6148 191.141 29.2182 191.141 28.2048L191.098 28.1607Z" fill="#F3F4EB"/>
<path d="M197.934 23.2695H198.935V29.4825H197.934V23.2695Z" fill="#F3F4EB"/>
<path d="M200.808 23.2695H204.641V23.9305H201.81V25.9574H204.641V26.6184H201.81V28.8656H204.641V29.5266H200.808V23.3136V23.2695Z" fill="#F3F4EB"/>
<path d="M206.469 28.1607V27.4557H207.47V28.8657H210.214V27.2354L206.469 25.9575V24.6356C206.469 23.6222 207.122 23.2256 208.82 23.2256C210.519 23.2256 211.172 23.6222 211.172 24.6356V25.3406H210.17V23.9306H207.427V25.561L211.172 26.8388V28.1607C211.172 29.1742 210.519 29.5708 208.82 29.5708C207.122 29.5708 206.469 29.1742 206.469 28.1607Z" fill="#F3F4EB"/>
</g>
<defs>
<clipPath id="clip0_3928_143">
<rect width="212" height="36" fill="white" transform="translate(0 0.488281)"/>
</clipPath>
</defs>
</svg>
