<svg width="212" height="37" viewBox="0 0 212 37" fill="none" xmlns="http://www.w3.org/2000/svg">
<g clip-path="url(#clip0_3916_2784)">
<path d="M0 14.1921H4.48562V13.9718C4.48562 3.79306 8.70994 0.488281 16.4618 0.488281C24.2136 0.488281 20.9039 0.7086 23.4733 1.14924V5.15903C21.0345 4.67433 18.9006 4.40995 17.0279 4.40995C11.9762 4.40995 9.05834 6.56907 9.05834 13.3989V14.2361H19.728V17.9375H9.05834V35.7833H4.48562V17.9375H0.0435497V14.2361L0 14.1921Z" fill="#2F3A2F"/>
<path d="M31.7046 1.2373H27.1318V35.7391H31.7046V1.2373Z" fill="#2F3A2F"/>
<path d="M45.8581 36.0032C39.8047 34.4169 36.3643 29.2614 36.3643 22.5638C36.3643 15.8661 41.3725 8.63965 49.8211 8.63965C58.2698 8.63965 63.2344 14.3679 63.2344 22.5638C63.2344 30.7596 63.1909 24.106 63.1038 24.8991L57.4859 28.5124C57.3552 28.6005 57.2246 28.4683 57.2681 28.3361C58.052 26.6617 58.4004 24.7669 58.4004 22.5638C58.4004 16.3508 55.3955 12.1647 49.734 12.1647C44.0726 12.1647 41.2418 16.2186 41.2418 22.5638C41.2418 28.9089 44.7694 33.095 50.0824 32.9628C50.2566 32.9628 50.3002 33.139 50.1695 33.2272L45.8581 36.0032Z" fill="#2F3A2F"/>
<path d="M65.9336 9.34473H70.8983L75.079 29.9225H75.1226L81.4373 9.34473H85.9665L92.3247 29.9225H92.3683L96.549 9.34473H101.514L95.8087 35.7389H90.2343L83.789 14.8527H83.6583L77.2565 35.7389H71.6386L65.9336 9.34473Z" fill="#2F3A2F"/>
<path d="M112.62 36.488C107.873 36.488 103.866 32.6985 103.866 25.0314C103.866 17.3643 106.915 11.8123 114.579 9.69727L118.586 12.253C118.717 12.3411 118.673 12.5173 118.542 12.5173C111.575 13.1342 108.744 19.4353 108.787 24.8111C108.787 29.0412 110.529 32.6985 113.665 32.6985C116.8 32.6985 119.98 29.7903 122.68 24.8111V15.2933C122.68 15.1171 122.81 15.073 122.941 15.1612L127.296 17.9372V27.9396C127.296 31.2003 127.601 33.8001 128.298 35.6948H123.725C123.42 34.461 123.159 32.7866 122.985 30.7597C120.067 34.417 116.191 36.4439 112.75 36.4439L112.62 36.488Z" fill="#2F3A2F"/>
<path d="M142.799 23.9305H141.014V23.2695H145.586V23.9305H143.801V29.5266H142.799V23.9305Z" fill="#2F3A2F"/>
<path d="M146.85 23.2695H150.682V23.9305H147.851V25.9574H150.682V26.6184H147.851V28.8656H150.682V29.5266H146.85V23.3136V23.2695Z" fill="#2F3A2F"/>
<path d="M152.206 28.1607V24.6356C152.206 23.6222 152.859 23.2256 154.688 23.2256C156.517 23.2256 157.171 23.6222 157.171 24.6356V25.561H156.169V23.9306H153.208V28.8657H156.169V27.2354H157.171V28.1607C157.171 29.1742 156.517 29.5708 154.688 29.5708C152.859 29.5708 152.206 29.1742 152.206 28.1607Z" fill="#2F3A2F"/>
<path d="M158.913 23.2695H159.915V25.9574H162.745V23.2695H163.747V29.4825H162.745V26.5743H159.915V29.4825H158.913V23.2695Z" fill="#2F3A2F"/>
<path d="M165.532 23.2695H167.318L169.103 27.4996C169.277 27.9403 169.495 28.425 169.669 28.8656H169.887V23.2695H170.802V29.4825H169.016L167.231 25.2524C167.056 24.8118 166.839 24.3271 166.665 23.8864H166.447V29.4825H165.532V23.2695Z" fill="#2F3A2F"/>
<path d="M172.587 28.1607V24.6356C172.587 23.6222 173.24 23.2256 175.113 23.2256C176.985 23.2256 177.639 23.6222 177.639 24.6356V28.1607C177.639 29.1742 176.985 29.5708 175.113 29.5708C173.24 29.5708 172.587 29.1742 172.587 28.1607ZM176.637 28.8657V23.9306H173.589V28.8657H176.637Z" fill="#2F3A2F"/>
<path d="M179.381 23.2695H180.383V28.8656H183.126V29.5266H179.381V23.3136V23.2695Z" fill="#2F3A2F"/>
<path d="M184.259 28.1607V24.6356C184.259 23.6222 184.912 23.2256 186.785 23.2256C188.657 23.2256 189.31 23.6222 189.31 24.6356V28.1607C189.31 29.1742 188.657 29.5708 186.785 29.5708C184.912 29.5708 184.259 29.1742 184.259 28.1607ZM188.309 28.8657V23.9306H185.26V28.8657H188.309Z" fill="#2F3A2F"/>
<path d="M191.096 28.1607V24.6356C191.096 23.6222 191.749 23.2256 193.578 23.2256C195.407 23.2256 196.061 23.6222 196.061 24.6356V25.2966H195.059V23.9306H192.098V28.8657H195.059V27.0591H193.578V26.3982H196.061V29.5267H195.494L195.277 29.0861C194.841 29.4386 194.188 29.6148 193.448 29.6148C191.88 29.6148 191.139 29.2182 191.139 28.2048L191.096 28.1607Z" fill="#2F3A2F"/>
<path d="M197.934 23.2695H198.935V29.4825H197.934V23.2695Z" fill="#2F3A2F"/>
<path d="M200.807 23.2695H204.64V23.9305H201.809V25.9574H204.64V26.6184H201.809V28.8656H204.64V29.5266H200.807V23.3136V23.2695Z" fill="#2F3A2F"/>
<path d="M206.469 28.1607V27.4557H207.47V28.8657H210.214V27.2354L206.469 25.9575V24.6356C206.469 23.6222 207.122 23.2256 208.82 23.2256C210.519 23.2256 211.172 23.6222 211.172 24.6356V25.3406H210.17V23.9306H207.427V25.561L211.172 26.8388V28.1607C211.172 29.1742 210.519 29.5708 208.82 29.5708C207.122 29.5708 206.469 29.1742 206.469 28.1607Z" fill="#2F3A2F"/>
</g>
<defs>
<clipPath id="clip0_3916_2784">
<rect width="212" height="36" fill="white" transform="translate(0 0.488281)"/>
</clipPath>
</defs>
</svg>
